<?xml version="1.0" standalone="no"?>
<!DOCTYPE svg PUBLIC "-//W3C//DTD SVG 20010904//EN"
 "http://www.w3.org/TR/2001/REC-SVG-20010904/DTD/svg10.dtd">
<svg version="1.0" xmlns="http://www.w3.org/2000/svg"
 width="1434.000000pt" height="722.000000pt" viewBox="0 0 1434.000000 722.000000"
 preserveAspectRatio="xMidYMid meet">
<metadata>
Created by potrace 1.16, written by Peter Selinger 2001-2019
</metadata>
<g transform="translate(0.000000,722.000000) scale(0.100000,-0.100000)"
fill="#000000" stroke="none">
<path d="M2105 5699 c-131 -19 -269 -51 -386 -89 -129 -43 -419 -177 -419
-195 0 -6 63 -10 173 -10 152 -1 186 -4 290 -29 373 -87 731 -287 983 -549
152 -157 252 -317 429 -687 189 -393 250 -498 320 -551 89 -67 136 -83 262
-87 138 -5 212 14 352 91 74 41 109 69 173 136 91 98 144 194 134 245 -149
803 -710 1434 -1473 1657 -192 55 -370 79 -586 78 -106 -1 -219 -5 -252 -10z"/>
<path d="M963 5131 c-60 -7 -92 -33 -193 -156 -68 -83 -190 -254 -190 -266 0
-14 59 -11 242 16 367 52 441 53 688 13 451 -73 832 -330 1004 -678 61 -122
83 -190 101 -315 51 -337 114 -503 239 -629 67 -67 147 -108 276 -143 94 -25
122 -28 260 -28 131 0 169 4 245 24 328 86 609 312 756 607 40 81 44 96 46
172 2 103 -12 108 -55 19 -97 -196 -324 -395 -544 -477 -249 -92 -477 -55
-646 104 -81 77 -112 139 -197 396 -119 364 -209 545 -368 742 -98 123 -172
189 -321 289 -237 160 -497 261 -781 305 -93 14 -460 17 -562 5z"/>
<path d="M9104 5129 c-287 -21 -494 -189 -594 -483 -48 -141 -80 -360 -80
-547 0 -56 -6 -103 -14 -124 l-15 -35 -180 0 -181 0 0 -94 0 -95 178 -3 c133
-2 183 -7 195 -17 16 -12 17 -68 17 -620 -1 -639 -2 -653 -47 -703 -32 -36
-95 -61 -165 -66 l-68 -5 0 -73 0 -74 510 0 510 0 0 74 0 73 -87 6 c-98 5
-172 27 -221 64 -65 49 -62 18 -62 712 l0 630 38 10 c20 6 119 11 220 11 l182
0 0 34 c0 18 3 60 6 92 l6 59 -118 -7 c-66 -3 -160 -7 -211 -7 -127 -1 -123
-10 -123 244 0 228 12 344 46 463 57 196 139 292 250 292 56 0 122 -35 115
-61 -21 -77 -24 -101 -12 -139 17 -58 57 -80 144 -80 74 0 107 12 149 57 37
39 48 74 48 146 -2 204 -137 287 -436 266z"/>
<path d="M5415 5079 c-361 -29 -647 -289 -705 -641 -40 -246 21 -488 159 -640
141 -153 318 -246 751 -394 157 -54 312 -110 345 -124 136 -61 230 -159 277
-288 17 -45 22 -81 22 -167 1 -104 -1 -114 -32 -179 -69 -146 -235 -268 -431
-317 -235 -59 -502 21 -703 210 -166 155 -254 329 -274 539 l-7 72 -75 0 -75
0 6 -167 c7 -190 27 -397 63 -653 13 -96 24 -178 24 -182 0 -26 135 32 249
106 40 25 76 46 81 46 6 0 29 -13 51 -30 57 -41 176 -85 296 -109 124 -26 371
-29 485 -7 316 62 533 266 620 581 29 109 33 413 5 515 -40 151 -133 283 -261
374 -90 65 -236 134 -466 221 -461 175 -610 252 -718 369 -179 197 -110 510
140 637 82 41 167 59 288 59 170 0 293 -40 419 -136 131 -99 267 -315 327
-521 l28 -93 69 0 70 0 -6 173 c-13 330 -79 717 -123 717 -23 0 -175 -73 -226
-108 l-43 -30 -125 60 c-69 32 -152 68 -185 80 -71 24 -209 35 -320 27z"/>
<path d="M7290 4989 c-94 -10 -158 -59 -180 -137 -13 -49 -13 -181 1 -223 33
-98 99 -139 221 -139 96 0 149 20 191 69 75 90 74 288 -2 375 -39 45 -130 66
-231 55z"/>
<path d="M1020 4419 c-85 -8 -258 -39 -445 -79 -55 -12 -118 -20 -140 -18
l-40 3 -18 -55 c-23 -70 -73 -297 -82 -372 -7 -56 -7 -57 23 -72 43 -22 70
-21 265 19 311 62 414 77 547 76 134 0 283 -24 384 -62 165 -61 348 -256 507
-539 203 -362 366 -552 556 -648 64 -33 191 -77 294 -103 80 -20 119 -23 269
-24 158 0 186 3 285 28 399 100 720 338 920 682 52 90 51 67 -3 -40 -180 -361
-555 -655 -980 -768 -112 -29 -125 -31 -322 -31 -182 0 -216 2 -300 23 -139
34 -285 94 -402 164 -195 117 -320 225 -512 441 -185 209 -279 297 -357 334
-97 46 -218 73 -354 79 -151 7 -279 -7 -509 -58 -198 -43 -220 -45 -256 -24
-41 23 -51 28 -55 24 -11 -12 46 -274 91 -416 23 -72 31 -85 66 -110 58 -40
134 -42 338 -8 221 36 365 32 518 -15 145 -44 241 -87 365 -164 472 -292 723
-406 990 -452 133 -22 411 -15 544 14 235 52 452 148 647 289 32 23 64 40 69
36 6 -3 7 -1 3 5 -8 13 48 55 59 44 5 -4 5 -2 2 4 -4 7 36 52 93 107 55 52
100 98 100 102 0 4 22 37 49 74 26 37 63 92 81 121 17 30 29 47 26 37 -11 -34
-85 -155 -146 -236 -279 -377 -739 -653 -1185 -712 -58 -7 -165 -10 -300 -6
-318 8 -495 45 -1020 217 -275 90 -326 98 -677 109 l-247 8 -60 30 c-50 24
-61 27 -61 14 0 -47 305 -393 380 -431 66 -33 141 -49 353 -75 292 -34 706
-65 988 -72 480 -12 787 45 1111 208 201 101 355 214 528 388 69 69 110 105
91 81 -19 -25 -94 -104 -165 -176 -123 -123 -275 -242 -424 -334 -59 -36 -232
-115 -367 -168 -307 -119 -689 -171 -1160 -158 -261 8 -384 19 -503 47 -97 22
-95 22 -86 8 20 -34 304 -143 486 -188 208 -51 326 -64 553 -58 212 5 345 24
515 73 523 150 979 515 1244 994 59 106 128 258 131 290 2 14 18 63 36 108 22
56 29 86 22 90 -8 5 -4 29 12 77 13 39 26 90 30 114 6 38 5 43 -9 38 -20 -8
-20 -8 5 50 23 54 39 203 21 203 -6 0 -16 -17 -23 -37 -61 -192 -264 -439
-469 -575 -219 -144 -446 -220 -660 -220 -330 0 -592 135 -786 405 -75 106
-92 153 -139 392 -41 206 -69 279 -156 395 -104 141 -228 249 -362 317 -241
121 -526 171 -817 142z"/>
<path d="M11940 4022 c-8 -2 -152 -31 -320 -66 l-305 -63 -3 -61 -3 -62 29 0
c87 0 185 -57 222 -130 37 -72 41 -146 38 -650 l-3 -486 -26 -49 c-35 -68 -95
-105 -183 -112 l-66 -6 0 -73 0 -74 485 0 485 0 0 75 0 75 -50 0 c-117 0 -210
44 -255 120 -19 33 -20 51 -20 335 0 328 11 454 51 594 47 160 130 283 218
321 23 10 73 21 112 24 l71 7 -4 -78 c-7 -135 39 -183 178 -183 63 0 82 4 110
23 48 32 80 96 87 172 16 209 -69 325 -254 343 -158 16 -258 -23 -390 -153
-81 -80 -164 -206 -164 -249 0 -13 -3 -17 -10 -10 -5 5 -11 98 -12 214 -3 176
-5 205 -18 202z"/>
<path d="M7235 3960 c-148 -33 -280 -62 -292 -65 -21 -5 -23 -12 -23 -63 l0
-58 62 -13 c53 -11 70 -20 109 -59 82 -82 82 -84 87 -634 2 -311 0 -496 -7
-535 -21 -112 -99 -180 -222 -192 -33 -3 -59 -9 -59 -13 0 -5 0 -37 0 -73 l0
-65 490 0 490 0 0 74 0 73 -75 5 c-104 7 -178 45 -220 112 l-30 49 -3 759 c-3
708 -4 758 -20 757 -9 0 -138 -27 -287 -59z"/>
<path d="M10105 4009 c-198 -16 -391 -103 -511 -231 -63 -66 -88 -114 -104
-196 -10 -48 -10 -76 -1 -119 21 -106 60 -135 177 -134 87 1 130 16 167 60 35
42 40 140 11 209 -29 72 12 182 81 217 55 28 272 34 343 11 139 -47 201 -180
202 -433 l0 -122 -57 -11 c-611 -119 -957 -336 -991 -622 -25 -207 43 -373
181 -441 77 -38 126 -46 257 -47 215 0 408 71 588 218 29 24 55 42 57 40 1 -2
10 -27 20 -56 22 -69 69 -129 130 -167 44 -28 57 -30 154 -33 90 -3 115 0 165
18 71 27 129 78 162 142 30 59 30 64 -2 84 -24 16 -27 16 -68 -4 -76 -38 -167
-26 -203 27 -17 24 -18 74 -24 601 -6 626 -6 625 -66 749 -51 105 -150 177
-298 216 -74 20 -264 32 -370 24z m382 -1091 c-6 -261 -32 -351 -129 -454 -75
-79 -146 -107 -283 -112 -105 -4 -112 -3 -165 25 -40 21 -63 42 -85 78 -29 47
-30 53 -30 164 0 103 3 122 25 166 51 106 176 202 330 255 72 25 269 68 314
69 l28 1 -5 -192z"/>
<path d="M13425 4009 c-309 -22 -498 -219 -499 -519 -1 -118 18 -176 82 -256
99 -123 232 -202 522 -308 281 -102 360 -151 406 -251 33 -70 33 -170 0 -242
-48 -103 -150 -148 -331 -147 -202 2 -323 68 -429 235 -33 54 -90 181 -116
262 l-12 37 -64 0 -64 0 0 -37 c1 -152 33 -460 61 -594 l10 -46 52 8 c62 10
129 34 176 63 l33 21 64 -32 c234 -117 544 -65 746 126 117 110 178 270 165
431 -19 223 -179 361 -618 533 -342 134 -429 201 -429 328 0 80 36 151 97 189
65 42 133 60 219 60 193 0 352 -118 474 -352 l41 -78 56 0 55 0 -7 83 c-3 45
-11 118 -16 162 -11 82 -56 305 -64 313 -7 7 -86 -26 -127 -53 l-37 -24 -63
28 c-118 54 -226 71 -383 60z"/>
</g>
</svg>
